<?xml version="1.0" standalone="no"?>
<!DOCTYPE svg PUBLIC "-//W3C//DTD SVG 20010904//EN"
 "http://www.w3.org/TR/2001/REC-SVG-20010904/DTD/svg10.dtd">
<svg version="1.0" xmlns="http://www.w3.org/2000/svg"
 width="720.000000pt" height="720.000000pt" viewBox="0 0 720.000000 720.000000"
 preserveAspectRatio="xMidYMid meet">
<metadata>
Created by potrace 1.11, written by Peter Selinger 2001-2013
</metadata>
<g transform="translate(0.000000,720.000000) scale(0.100000,-0.100000)"
fill="#000000" stroke="none">
<path d="M2540 4274 c-1031 -596 -1951 -1128 -2045 -1182 l-170 -97 52 -3 52
-3 1548 894 c851 492 1558 899 1571 906 22 12 51 -15 578 -536 305 -301 561
-552 568 -557 10 -7 34 10 86 60 39 38 77 75 83 82 17 20 50 52 310 307 l235
230 -487 490 c-267 269 -490 491 -496 492 -5 1 -854 -487 -1885 -1083z"/>
<path d="M2042 3841 l-1464 -846 61 -3 60 -3 983 567 c541 312 1051 607 1135
656 83 48 154 88 158 88 4 0 221 -211 482 -470 261 -258 478 -470 483 -470 4
0 74 64 154 143 80 79 146 142 146 140 0 -2 9 6 20 17 11 11 20 25 20 30 0 6
3 10 8 10 9 0 46 34 86 77 l29 32 -438 441 c-241 242 -443 440 -449 439 -6 -1
-670 -382 -1474 -848z"/>
<path d="M2500 3963 c-234 -135 -520 -300 -635 -367 -1130 -651 -1047 -601
-998 -604 47 -3 110 32 1402 781 l274 158 161 -158 c89 -87 258 -253 376 -369
l215 -210 163 163 164 163 -343 345 c-188 190 -345 345 -348 345 -3 0 -197
-111 -431 -247z"/>
<path d="M160 2515 c0 -10 16 -15 63 -17 l62 -3 5 -430 c5 -463 4 -455 62
-570 32 -63 89 -136 100 -128 6 3 8 2 5 -4 -16 -26 206 -195 234 -177 7 4 10
3 6 -3 -9 -14 110 -62 148 -61 17 1 55 -6 85 -15 30 -8 45 -16 34 -16 -12 -1
-41 6 -64 14 -55 20 -77 18 -25 -2 47 -17 205 -43 255 -42 19 1 -5 7 -55 14
l-90 13 95 -6 c52 -4 1200 -7 2550 -7 2559 0 2533 0 2674 41 27 7 51 12 53 10
4 -4 -66 -26 -122 -39 -20 -5 -20 -5 0 -6 12 0 65 13 120 30 74 23 95 33 84
41 -11 8 -10 9 5 4 18 -6 111 36 171 77 17 11 69 61 118 110 63 65 97 109 123
161 57 116 63 179 64 614 l0 382 60 0 c47 0 60 3 60 15 0 13 -389 15 -3440 15
-3001 0 -3440 -2 -3440 -15z m6517 -271 c50 -38 73 -81 73 -136 0 -60 -12 -91
-50 -128 -37 -36 -66 -44 -128 -37 -37 4 -53 12 -75 39 -37 43 -47 69 -47 125
0 125 136 207 227 137z m-5339 -51 l3 -53 -50 0 -51 0 0 56 0 55 48 -3 47 -3
3 -52z m2920 12 c18 -16 22 -30 22 -81 0 -33 -3 -64 -6 -67 -4 -4 -24 9 -46
28 -42 38 -45 39 -81 26 -34 -13 -52 -64 -52 -146 0 -80 16 -127 51 -150 23
-15 27 -15 58 5 19 11 37 27 40 35 3 8 12 15 21 15 23 0 21 -122 -2 -141 -36
-28 -64 -39 -103 -39 -51 0 -92 21 -123 62 -43 59 -52 96 -52 213 0 100 3 115
27 165 40 80 76 102 158 98 46 -3 71 -9 88 -23z m-3614 -98 c17 -61 33 -102
37 -95 4 7 19 57 34 111 l28 98 56 -3 56 -3 0 -250 0 -250 -47 -3 -48 -3 -1
143 c-1 110 -3 135 -10 108 -41 -148 -37 -140 -74 -140 -36 0 -32 -9 -73 140
-8 27 -10 4 -11 -107 l-1 -143 -50 0 -50 0 0 248 c0 137 3 252 7 256 4 4 32 6
62 4 l55 -3 30 -108z m1190 97 c12 -5 16 -20 16 -60 l0 -54 35 0 c35 0 35 0
35 -45 0 -45 0 -45 -35 -45 l-36 0 3 -102 3 -103 33 3 c32 3 32 3 32 -40 0
-56 -13 -68 -70 -68 -50 0 -84 22 -101 67 -5 13 -9 74 -9 134 0 90 -3 109 -15
109 -11 0 -15 12 -15 45 0 33 4 45 15 45 11 0 15 13 15 54 0 34 5 56 13 59 18
8 63 8 81 1z m-704 -123 l35 -29 3 -171 3 -171 -45 0 c-34 0 -46 4 -46 15 0
10 -8 7 -26 -10 -44 -41 -103 -26 -133 32 -16 31 -14 119 4 153 18 35 81 70
124 70 22 0 29 4 25 14 -9 23 -58 29 -97 13 -42 -18 -57 -8 -57 40 0 52 31 73
110 73 58 0 70 -3 100 -29z m500 11 c33 -31 40 -70 40 -228 l0 -154 -45 0 -45
0 0 103 c0 165 -9 193 -59 180 -20 -5 -21 -12 -21 -144 l0 -139 -50 0 -50 0 0
191 0 190 60 -2 c36 -1 65 2 72 9 18 18 76 14 98 -6z m537 -12 c36 -35 56 -97
51 -160 l-3 -45 -92 -3 -92 -3 11 -30 c6 -17 21 -34 34 -39 29 -11 79 -3 95
16 25 30 39 16 39 -40 0 -51 -2 -56 -32 -70 -79 -40 -186 -6 -224 71 -29 58
-27 193 4 251 29 54 73 82 133 82 37 0 51 -6 76 -30z m331 8 c35 -39 42 -74
42 -229 l0 -149 -50 0 -50 0 0 118 c0 64 -3 127 -6 139 -7 27 -29 36 -55 23
-17 -10 -19 -23 -19 -145 l0 -135 -50 0 -50 0 0 190 0 190 49 0 c27 0 51 -5
53 -11 2 -5 12 -1 23 10 28 28 86 27 113 -1z m291 7 c51 -26 61 -66 61 -234
l0 -151 -49 0 c-27 0 -51 5 -53 10 -2 6 -13 2 -25 -10 -83 -76 -182 70 -127
186 18 39 79 74 126 74 35 0 36 17 2 32 -21 10 -35 9 -70 -4 -24 -8 -46 -13
-49 -10 -3 3 -5 26 -5 52 0 39 4 49 23 58 33 16 134 14 166 -3z m362 -11 c23
-25 24 -31 27 -200 l3 -174 -45 0 -46 0 0 109 c0 163 -12 197 -61 171 -17 -10
-19 -23 -19 -145 l0 -135 -50 0 -50 0 0 190 0 190 50 0 c28 0 50 -5 50 -10 0
-6 10 -2 22 10 32 29 88 27 119 -6z m297 10 c31 -15 32 -18 32 -75 0 -46 -3
-59 -15 -59 -9 0 -18 6 -21 14 -3 8 -19 20 -35 27 -27 11 -33 10 -52 -10 -18
-18 -22 -33 -22 -91 0 -57 4 -73 21 -90 25 -25 68 -19 85 11 5 11 16 19 24 19
12 0 15 -14 15 -59 0 -57 -1 -60 -32 -75 -112 -56 -217 33 -218 184 0 92 16
139 62 183 32 31 46 37 82 37 24 0 57 -7 74 -16z m288 -13 c36 -35 54 -89 54
-160 l0 -51 -94 0 -95 0 11 -31 c6 -17 21 -34 34 -39 29 -11 79 -3 95 16 25
30 39 16 39 -40 0 -51 -2 -56 -32 -70 -63 -32 -142 -18 -200 34 -51 46 -63
192 -24 276 32 68 67 93 132 94 42 0 55 -5 80 -29z m806 -2 c27 -21 42 -45 53
-81 47 -158 -19 -308 -135 -308 -89 0 -150 85 -150 209 0 84 17 131 62 174 34
32 45 37 86 37 38 0 55 -6 84 -31z m339 3 l23 -27 30 27 c54 50 117 30 145
-45 6 -16 11 -96 11 -178 l0 -149 -49 0 -49 0 -4 135 c-4 141 -10 162 -47 150
-20 -6 -21 -13 -21 -146 l0 -139 -49 0 -49 0 -4 135 c-3 144 -10 165 -47 146
-20 -11 -21 -20 -21 -146 l0 -135 -50 0 -50 0 0 191 0 190 60 -2 c36 -1 65 2
72 9 22 22 75 14 99 -16z m503 2 c33 -34 46 -81 46 -174 0 -99 -15 -148 -57
-187 -35 -33 -94 -46 -108 -23 -16 26 -25 4 -25 -60 l0 -70 -45 0 -45 0 0 260
0 260 45 0 c33 0 45 -4 45 -15 0 -10 8 -7 26 10 36 34 83 33 118 -1z m282 10
c47 -31 54 -60 54 -229 l0 -155 -45 0 c-33 0 -45 4 -45 15 0 10 -8 7 -26 -10
-48 -45 -109 -27 -133 38 -16 41 -13 113 4 147 18 35 81 70 124 70 22 0 29 4
25 14 -9 23 -58 29 -97 12 -20 -8 -38 -12 -41 -8 -3 3 -6 25 -6 50 0 31 5 49
18 58 25 20 137 18 168 -2z m354 -2 c33 -31 40 -70 40 -228 l0 -154 -45 0 -45
0 0 94 c0 170 -13 211 -61 186 -17 -10 -19 -23 -19 -146 l0 -135 -52 3 -53 3
-3 188 -2 188 65 -2 c39 -1 70 2 77 9 18 18 76 14 98 -6z m-4680 -192 l0 -190
-50 0 -50 0 0 190 0 190 50 0 50 0 0 -190z m4871 148 c30 -116 48 -171 48
-154 1 10 10 58 22 107 l21 89 49 0 c27 0 49 -3 49 -8 0 -10 -92 -349 -120
-439 l-22 -73 -49 0 c-27 0 -49 3 -49 6 0 3 8 35 17 70 l17 64 -47 184 c-26
101 -47 186 -47 190 0 3 22 6 50 6 l49 0 12 -42z m-5421 -898 c8 -5 11 -10 5
-10 -5 0 -17 5 -25 10 -8 5 -10 10 -5 10 6 0 17 -5 25 -10z m5630 -4 c0 -2 -7
-7 -16 -10 -8 -3 -12 -2 -9 4 6 10 25 14 25 6z"/>
<path d="M6564 2220 c-12 -4 -31 -20 -42 -35 -79 -100 12 -244 123 -193 l26
12 -38 38 c-20 21 -40 38 -44 38 -4 0 -9 -15 -11 -32 -2 -21 -8 -33 -18 -33
-12 0 -16 18 -18 88 l-3 87 54 0 c29 0 58 -5 65 -12 15 -15 15 -61 0 -76 -9
-9 -6 -18 12 -37 22 -24 25 -24 31 -8 22 55 -13 145 -63 162 -36 13 -45 13
-74 1z"/>
<path d="M6580 2130 c0 -23 22 -27 39 -7 13 16 5 27 -21 27 -11 0 -18 -7 -18
-20z"/>
<path d="M1042 1873 c-29 -12 -33 -18 -30 -46 3 -35 23 -45 51 -24 13 9 18 23
15 48 l-3 36 -33 -14z"/>
<path d="M2046 1988 c-22 -32 -21 -33 29 -33 48 0 57 12 29 39 -21 22 -40 20
-58 -6z"/>
<path d="M2713 1873 c-29 -6 -42 -49 -20 -70 24 -25 57 -1 57 42 0 19 -3 34
-7 34 -5 -1 -18 -4 -30 -6z"/>
<path d="M3623 1998 c-27 -35 -25 -38 21 -38 49 0 56 9 30 34 -19 19 -38 20
-51 4z"/>
<path d="M4429 1993 c-9 -10 -14 -43 -14 -95 0 -67 3 -82 19 -94 35 -25 54
-11 67 46 23 102 -26 199 -72 143z"/>
<path d="M5262 1990 c-22 -9 -23 -14 -20 -102 3 -87 4 -93 25 -96 12 -2 31 6
42 17 17 17 21 34 21 90 0 50 -4 74 -16 85 -17 18 -20 18 -52 6z"/>
<path d="M5592 1873 c-29 -12 -33 -18 -30 -46 3 -35 23 -45 51 -24 13 9 18 23
15 48 l-3 36 -33 -14z"/>
<path d="M6158 1073 c12 -2 30 -2 40 0 9 3 -1 5 -23 4 -22 0 -30 -2 -17 -4z"/>
<path d="M6063 1063 c15 -2 37 -2 50 0 12 2 0 4 -28 4 -27 0 -38 -2 -22 -4z"/>
</g>
</svg>
